# xmcd CD database file
#
# Track frame offsets:
#	150
#	14556
#	42178
#	60471
#	76451
#	94455
#	122718
#	145422
#	166065
#	191764
#	212320
#
# Disc length: 3005 seconds
#
# Revision: 0
# Processed by: cddbd v1.5.2PL0 Copyright (c) Steve Scherf et al.
# Submitted via: CDex 1.70beta2
#
DISCID=940bbb0b
DTITLE=Mansour, Mathisen, Gewelt, Froman - Creatures
DYEAR=2008
DGENRE=Jazz
TTITLE0=Creature of habit
TTITLE1=Stone Paintings
TTITLE2=Sunday
TTITLE3=Hiatus
TTITLE4=Perennials
TTITLE5=Nocturne
TTITLE6=Phil Brisell
TTITLE7=Avaz
TTITLE8=Falls
TTITLE9=Var
TTITLE10=Front Page
EXTD=YEAR: 2008
EXTT0=
EXTT1=
EXTT2=
EXTT3=
EXTT4=
EXTT5=
EXTT6=
EXTT7=
EXTT8=
EXTT9=
EXTT10=
PLAYORDER=
